<svg xmlns="http://www.w3.org/2000/svg" xmlns:xlink="http://www.w3.org/1999/xlink" width="95.647" height="83.073" viewBox="0 0 95.647 83.073">
  <defs>
    <clipPath id="clip-path">
      <path id="Path_697" data-name="Path 697" d="M398.864,146a3.824,3.824,0,0,1,2.8,1.168l.058.058a3.472,3.472,0,0,1,1.11,2.629,3.2,3.2,0,0,1-.117.876,3.782,3.782,0,0,1-1.052,1.928.051.051,0,0,0-.058.058,3.973,3.973,0,0,1-2.746,1.052h-.234a3.5,3.5,0,0,1-2.512-1.11,3.3,3.3,0,0,1-.7-.993,3.383,3.383,0,0,1-.467-1.811,3.568,3.568,0,0,1,1.168-2.687A3.634,3.634,0,0,1,398.864,146Z" transform="translate(-394.95 -146)" fill="none" clip-rule="evenodd"/>
    </clipPath>
  </defs>
  <g id="Planet" transform="translate(-376.4 -142.55)">
    <path id="Path_627" data-name="Path 627" d="M395.263,158.038l-.058-.175-.7-1.4a13.787,13.787,0,0,1-1.11-2.1,9.025,9.025,0,0,1-.993-3.8,6.12,6.12,0,0,1,2.1-4.79,7.586,7.586,0,0,1,4.966-2.22,7.423,7.423,0,0,1,4.966,2.22l.467.467a6.64,6.64,0,0,1,1.519,3.155,10.732,10.732,0,0,1,.058,1.168,12.742,12.742,0,0,1-2.045,5.9l-2.512,5.375-1.227,2.57-1.227,2.57-1.227-2.512a1.848,1.848,0,0,0-.467.351,1.147,1.147,0,0,0-.292.409,3.859,3.859,0,0,1-.409-.351.727.727,0,0,1-.234-.526.616.616,0,0,1,.234-.526.727.727,0,0,1,.526-.234.978.978,0,0,1,.292.058Zm4.031-11.625a3.634,3.634,0,0,0-2.746,1.168,3.568,3.568,0,0,0-1.168,2.687,3.384,3.384,0,0,0,.467,1.811,3.306,3.306,0,0,0,.7.993,3.5,3.5,0,0,0,2.512,1.11h.234a3.973,3.973,0,0,0,2.746-1.052.051.051,0,0,1,.058-.058,3.782,3.782,0,0,0,1.052-1.928,3.2,3.2,0,0,0,.117-.876,3.472,3.472,0,0,0-1.11-2.629l-.058-.058A3.824,3.824,0,0,0,399.294,146.413Z" transform="translate(2.694 0.168)" fill="#fa256d" fill-rule="evenodd"/>
    <g id="Group_641" data-name="Group 641" transform="translate(398.074 146.581)">
      <g id="Group_640" data-name="Group 640">
        <g id="Group_639" data-name="Group 639" clip-path="url(#clip-path)">
          <rect id="Rectangle_32" data-name="Rectangle 32" width="7.887" height="7.768" transform="translate(-0.001)" fill="#a1a1a1"/>
          <ellipse id="Ellipse_12" data-name="Ellipse 12" cx="4.016" cy="4.003" rx="4.016" ry="4.003" transform="translate(-0.101 -0.146)" fill="#a1a1a1"/>
          <path id="Path_628" data-name="Path 628" d="M398.878,145.887a3.987,3.987,0,1,1-4,3.989A4,4,0,0,1,398.878,145.887Z" transform="translate(-394.963 -146.019)" fill="#a2a2a2" fill-rule="evenodd"/>
          <path id="Path_629" data-name="Path 629" d="M398.876,145.9a3.973,3.973,0,1,1-3.989,3.976A3.981,3.981,0,0,1,398.876,145.9Z" transform="translate(-394.961 -146.017)" fill="#a3a3a3" fill-rule="evenodd"/>
          <path id="Path_630" data-name="Path 630" d="M398.874,145.914a3.957,3.957,0,1,1-3.976,3.957A3.965,3.965,0,0,1,398.874,145.914Z" transform="translate(-394.959 -146.014)" fill="#a4a4a4" fill-rule="evenodd"/>
          <ellipse id="Ellipse_13" data-name="Ellipse 13" cx="3.957" cy="3.943" rx="3.957" ry="3.943" transform="translate(-0.042 -0.087)" fill="#a5a5a5"/>
          <ellipse id="Ellipse_14" data-name="Ellipse 14" cx="3.943" cy="3.93" rx="3.943" ry="3.93" transform="translate(-0.028 -0.073)" fill="#a6a6a6"/>
          <path id="Path_631" data-name="Path 631" d="M398.867,145.949a3.914,3.914,0,1,1-3.93,3.916A3.92,3.92,0,0,1,398.867,145.949Z" transform="translate(-394.952 -146.009)" fill="#a7a7a7" fill-rule="evenodd"/>
          <path id="Path_632" data-name="Path 632" d="M398.865,145.961a3.9,3.9,0,1,1-3.916,3.9A3.908,3.908,0,0,1,398.865,145.961Z" transform="translate(-394.95 -146.007)" fill="#a8a8a8" fill-rule="evenodd"/>
          <path id="Path_633" data-name="Path 633" d="M398.863,145.977a3.884,3.884,0,1,1-3.9,3.884A3.892,3.892,0,0,1,398.863,145.977Z" transform="translate(-394.948 -146.004)" fill="#a9a9a9" fill-rule="evenodd"/>
          <ellipse id="Ellipse_15" data-name="Ellipse 15" cx="3.884" cy="3.87" rx="3.884" ry="3.87" transform="translate(0.031 -0.014)" fill="#aaa"/>
          <path id="Path_634" data-name="Path 634" d="M398.859,146a3.855,3.855,0,1,1-3.871,3.857A3.86,3.86,0,0,1,398.859,146Z" transform="translate(-394.944 -146)" fill="#ababab" fill-rule="evenodd"/>
          <path id="Path_635" data-name="Path 635" d="M398.857,146.012A3.841,3.841,0,1,1,395,149.855,3.848,3.848,0,0,1,398.857,146.012Z" transform="translate(-394.942 -145.998)" fill="#acacac" fill-rule="evenodd"/>
          <path id="Path_636" data-name="Path 636" d="M398.854,146.027a3.825,3.825,0,1,1-3.838,3.825A3.833,3.833,0,0,1,398.854,146.027Z" transform="translate(-394.939 -145.995)" fill="#adadad" fill-rule="evenodd"/>
          <path id="Path_637" data-name="Path 637" d="M398.852,146.039a3.811,3.811,0,1,1-3.825,3.811A3.818,3.818,0,0,1,398.852,146.039Z" transform="translate(-394.937 -145.993)" fill="#aeaeae" fill-rule="evenodd"/>
          <path id="Path_638" data-name="Path 638" d="M398.85,146.051a3.795,3.795,0,1,1-3.811,3.8A3.8,3.8,0,0,1,398.85,146.051Z" transform="translate(-394.935 -145.991)" fill="#afafaf" fill-rule="evenodd"/>
          <path id="Path_639" data-name="Path 639" d="M398.848,146.063a3.781,3.781,0,1,1-3.8,3.783A3.787,3.787,0,0,1,398.848,146.063Z" transform="translate(-394.933 -145.989)" fill="#b0b0b0" fill-rule="evenodd"/>
          <path id="Path_640" data-name="Path 640" d="M398.846,146.078a3.765,3.765,0,1,1-3.784,3.766A3.772,3.772,0,0,1,398.846,146.078Z" transform="translate(-394.931 -145.987)" fill="#b1b1b1" fill-rule="evenodd"/>
          <path id="Path_641" data-name="Path 641" d="M398.844,146.09a3.752,3.752,0,1,1-3.766,3.752A3.76,3.76,0,0,1,398.844,146.09Z" transform="translate(-394.929 -145.985)" fill="#b2b2b2" fill-rule="evenodd"/>
          <path id="Path_642" data-name="Path 642" d="M398.842,146.1a3.738,3.738,0,1,1-3.752,3.738A3.743,3.743,0,0,1,398.842,146.1Z" transform="translate(-394.926 -145.983)" fill="#b3b3b3" fill-rule="evenodd"/>
          <path id="Path_643" data-name="Path 643" d="M398.84,146.113a3.722,3.722,0,1,1-3.738,3.725A3.728,3.728,0,0,1,398.84,146.113Z" transform="translate(-394.924 -145.981)" fill="#b4b4b4" fill-rule="evenodd"/>
          <path id="Path_644" data-name="Path 644" d="M398.838,146.125a3.709,3.709,0,1,1-3.725,3.711A3.715,3.715,0,0,1,398.838,146.125Z" transform="translate(-394.923 -145.979)" fill="#b5b5b5" fill-rule="evenodd"/>
          <path id="Path_645" data-name="Path 645" d="M398.835,146.141a3.692,3.692,0,1,1-3.706,3.692A3.7,3.7,0,0,1,398.835,146.141Z" transform="translate(-394.92 -145.976)" fill="#b6b6b6" fill-rule="evenodd"/>
          <path id="Path_646" data-name="Path 646" d="M398.833,146.152a3.679,3.679,0,1,1-3.692,3.679A3.686,3.686,0,0,1,398.833,146.152Z" transform="translate(-394.918 -145.974)" fill="#b7b7b7" fill-rule="evenodd"/>
          <path id="Path_647" data-name="Path 647" d="M398.831,146.164a3.665,3.665,0,1,1-3.679,3.665A3.666,3.666,0,0,1,398.831,146.164Z" transform="translate(-394.916 -145.972)" fill="#b8b8b8" fill-rule="evenodd"/>
          <path id="Path_648" data-name="Path 648" d="M398.829,146.176a3.649,3.649,0,1,1-3.665,3.651A3.655,3.655,0,0,1,398.829,146.176Z" transform="translate(-394.914 -145.97)" fill="#b9b9b9" fill-rule="evenodd"/>
          <path id="Path_649" data-name="Path 649" d="M398.827,146.188a3.635,3.635,0,1,1-3.647,3.637A3.643,3.643,0,0,1,398.827,146.188Z" transform="translate(-394.911 -145.968)" fill="#bababa" fill-rule="evenodd"/>
          <path id="Path_650" data-name="Path 650" d="M398.825,146.2a3.619,3.619,0,1,1-3.634,3.62A3.628,3.628,0,0,1,398.825,146.2Z" transform="translate(-394.909 -145.966)" fill="#bbb" fill-rule="evenodd"/>
          <path id="Path_651" data-name="Path 651" d="M398.823,146.215a3.606,3.606,0,1,1-3.62,3.606A3.613,3.613,0,0,1,398.823,146.215Z" transform="translate(-394.907 -145.964)" fill="#bcbcbc" fill-rule="evenodd"/>
          <path id="Path_652" data-name="Path 652" d="M398.821,146.227a3.589,3.589,0,1,1-3.606,3.592A3.595,3.595,0,0,1,398.821,146.227Z" transform="translate(-394.905 -145.962)" fill="#bdbdbd" fill-rule="evenodd"/>
          <path id="Path_653" data-name="Path 653" d="M398.819,146.238a3.576,3.576,0,1,1-3.592,3.579A3.583,3.583,0,0,1,398.819,146.238Z" transform="translate(-394.903 -145.96)" fill="#bebebe" fill-rule="evenodd"/>
          <ellipse id="Ellipse_16" data-name="Ellipse 16" cx="3.574" cy="3.56" rx="3.574" ry="3.56" transform="translate(0.341 0.297)" fill="#bfbfbf"/>
          <path id="Path_654" data-name="Path 654" d="M398.814,146.266a3.546,3.546,0,1,1-3.56,3.546A3.552,3.552,0,0,1,398.814,146.266Z" transform="translate(-394.899 -145.955)" fill="silver" fill-rule="evenodd"/>
          <path id="Path_655" data-name="Path 655" d="M398.812,146.277a3.53,3.53,0,1,1-3.546,3.533A3.534,3.534,0,0,1,398.812,146.277Z" transform="translate(-394.897 -145.953)" fill="#c1c1c1" fill-rule="evenodd"/>
          <path id="Path_656" data-name="Path 656" d="M398.81,146.289a3.517,3.517,0,1,1-3.533,3.519A3.522,3.522,0,0,1,398.81,146.289Z" transform="translate(-394.895 -145.951)" fill="#c2c2c2" fill-rule="evenodd"/>
          <ellipse id="Ellipse_17" data-name="Ellipse 17" cx="3.514" cy="3.501" rx="3.514" ry="3.501" transform="translate(0.401 0.356)" fill="#c3c3c3"/>
          <ellipse id="Ellipse_18" data-name="Ellipse 18" cx="3.501" cy="3.487" rx="3.501" ry="3.487" transform="translate(0.414 0.37)" fill="#c4c4c4"/>
          <path id="Path_657" data-name="Path 657" d="M398.8,146.328a3.473,3.473,0,1,1-3.488,3.474A3.477,3.477,0,0,1,398.8,146.328Z" transform="translate(-394.888 -145.945)" fill="#c5c5c5" fill-rule="evenodd"/>
          <path id="Path_658" data-name="Path 658" d="M398.8,146.34a3.457,3.457,0,1,1-3.474,3.46A3.462,3.462,0,0,1,398.8,146.34Z" transform="translate(-394.886 -145.943)" fill="#c6c6c6" fill-rule="evenodd"/>
          <path id="Path_659" data-name="Path 659" d="M398.8,146.352a3.443,3.443,0,1,1-3.455,3.446A3.45,3.45,0,0,1,398.8,146.352Z" transform="translate(-394.884 -145.941)" fill="#c7c7c7" fill-rule="evenodd"/>
          <ellipse id="Ellipse_19" data-name="Ellipse 19" cx="3.441" cy="3.428" rx="3.441" ry="3.428" transform="translate(0.474 0.429)" fill="#c9c9c9"/>
          <ellipse id="Ellipse_20" data-name="Ellipse 20" cx="3.428" cy="3.414" rx="3.428" ry="3.414" transform="translate(0.487 0.443)" fill="#cacaca"/>
          <path id="Path_660" data-name="Path 660" d="M398.793,146.391a3.4,3.4,0,1,1-3.414,3.4A3.4,3.4,0,0,1,398.793,146.391Z" transform="translate(-394.878 -145.934)" fill="#cbcbcb" fill-rule="evenodd"/>
          <path id="Path_661" data-name="Path 661" d="M398.791,146.4a3.384,3.384,0,1,1-3.4,3.387A3.391,3.391,0,0,1,398.791,146.4Z" transform="translate(-394.876 -145.932)" fill="#ccc" fill-rule="evenodd"/>
          <path id="Path_662" data-name="Path 662" d="M398.788,146.414a3.371,3.371,0,1,1-3.382,3.373A3.379,3.379,0,0,1,398.788,146.414Z" transform="translate(-394.873 -145.93)" fill="#cdcdcd" fill-rule="evenodd"/>
          <path id="Path_663" data-name="Path 663" d="M398.787,146.43a3.354,3.354,0,1,1-3.369,3.354A3.359,3.359,0,0,1,398.787,146.43Z" transform="translate(-394.871 -145.928)" fill="#cecece" fill-rule="evenodd"/>
          <path id="Path_664" data-name="Path 664" d="M398.784,146.441a3.341,3.341,0,1,1-3.354,3.342A3.345,3.345,0,0,1,398.784,146.441Z" transform="translate(-394.869 -145.926)" fill="#cfcfcf" fill-rule="evenodd"/>
          <path id="Path_665" data-name="Path 665" d="M398.782,146.453a3.325,3.325,0,1,1-3.337,3.328A3.33,3.33,0,0,1,398.782,146.453Z" transform="translate(-394.867 -145.924)" fill="#d0d0d0" fill-rule="evenodd"/>
          <path id="Path_666" data-name="Path 666" d="M398.78,146.465a3.311,3.311,0,1,1-3.323,3.314A3.317,3.317,0,0,1,398.78,146.465Z" transform="translate(-394.865 -145.922)" fill="#d1d1d1" fill-rule="evenodd"/>
          <path id="Path_667" data-name="Path 667" d="M398.778,146.477a3.3,3.3,0,1,1-3.309,3.3A3.306,3.306,0,0,1,398.778,146.477Z" transform="translate(-394.863 -145.92)" fill="#d2d2d2" fill-rule="evenodd"/>
          <path id="Path_668" data-name="Path 668" d="M398.776,146.492a3.281,3.281,0,1,1-3.3,3.282A3.287,3.287,0,0,1,398.776,146.492Z" transform="translate(-394.861 -145.917)" fill="#d3d3d3" fill-rule="evenodd"/>
          <path id="Path_669" data-name="Path 669" d="M398.774,146.5a3.266,3.266,0,1,1-3.282,3.268A3.272,3.272,0,0,1,398.774,146.5Z" transform="translate(-394.859 -145.915)" fill="#d4d4d4" fill-rule="evenodd"/>
          <path id="Path_670" data-name="Path 670" d="M398.771,146.516a3.252,3.252,0,1,1-3.263,3.254A3.258,3.258,0,0,1,398.771,146.516Z" transform="translate(-394.856 -145.913)" fill="#d5d5d5" fill-rule="evenodd"/>
          <path id="Path_671" data-name="Path 671" d="M398.769,146.527a3.238,3.238,0,1,1-3.25,3.241A3.247,3.247,0,0,1,398.769,146.527Z" transform="translate(-394.854 -145.911)" fill="#d6d6d6" fill-rule="evenodd"/>
          <path id="Path_672" data-name="Path 672" d="M398.767,146.543a3.222,3.222,0,1,1-3.236,3.222A3.226,3.226,0,0,1,398.767,146.543Z" transform="translate(-394.852 -145.909)" fill="#d7d7d7" fill-rule="evenodd"/>
          <path id="Path_673" data-name="Path 673" d="M398.765,146.555a3.208,3.208,0,1,1-3.222,3.208A3.212,3.212,0,0,1,398.765,146.555Z" transform="translate(-394.85 -145.907)" fill="#d8d8d8" fill-rule="evenodd"/>
          <path id="Path_674" data-name="Path 674" d="M398.763,146.566a3.193,3.193,0,1,1-3.208,3.2A3.2,3.2,0,0,1,398.763,146.566Z" transform="translate(-394.848 -145.905)" fill="#d9d9d9" fill-rule="evenodd"/>
          <path id="Path_675" data-name="Path 675" d="M398.761,146.578a3.179,3.179,0,1,1-3.191,3.182A3.185,3.185,0,0,1,398.761,146.578Z" transform="translate(-394.846 -145.903)" fill="#dadada" fill-rule="evenodd"/>
          <path id="Path_676" data-name="Path 676" d="M398.759,146.594a3.163,3.163,0,1,1-3.177,3.163A3.166,3.166,0,0,1,398.759,146.594Z" transform="translate(-394.844 -145.9)" fill="#dbdbdb" fill-rule="evenodd"/>
          <path id="Path_677" data-name="Path 677" d="M398.757,146.605a3.149,3.149,0,1,1-3.163,3.15A3.155,3.155,0,0,1,398.757,146.605Z" transform="translate(-394.842 -145.898)" fill="#dcdcdc" fill-rule="evenodd"/>
          <ellipse id="Ellipse_21" data-name="Ellipse 21" cx="3.145" cy="3.135" rx="3.145" ry="3.135" transform="translate(0.77 0.721)" fill="#ddd"/>
          <path id="Path_678" data-name="Path 678" d="M398.752,146.629a3.12,3.12,0,1,1-3.131,3.122A3.125,3.125,0,0,1,398.752,146.629Z" transform="translate(-394.837 -145.894)" fill="#dedede" fill-rule="evenodd"/>
          <path id="Path_679" data-name="Path 679" d="M398.75,146.641a3.106,3.106,0,1,1-3.117,3.108A3.114,3.114,0,0,1,398.75,146.641Z" transform="translate(-394.835 -145.892)" fill="#dfdfdf" fill-rule="evenodd"/>
          <path id="Path_680" data-name="Path 680" d="M398.748,146.656a3.09,3.09,0,1,1-3.1,3.09A3.094,3.094,0,0,1,398.748,146.656Z" transform="translate(-394.833 -145.89)" fill="#e0e0e0" fill-rule="evenodd"/>
          <path id="Path_681" data-name="Path 681" d="M398.746,146.668a3.076,3.076,0,1,1-3.09,3.076A3.082,3.082,0,0,1,398.746,146.668Z" transform="translate(-394.831 -145.888)" fill="#e1e1e1" fill-rule="evenodd"/>
          <path id="Path_682" data-name="Path 682" d="M398.744,146.68a3.06,3.06,0,1,1-3.072,3.062A3.068,3.068,0,0,1,398.744,146.68Z" transform="translate(-394.828 -145.885)" fill="#e2e2e2" fill-rule="evenodd"/>
          <path id="Path_683" data-name="Path 683" d="M398.742,146.691a3.047,3.047,0,1,1-3.058,3.049A3.053,3.053,0,0,1,398.742,146.691Z" transform="translate(-394.826 -145.884)" fill="#e3e3e3" fill-rule="evenodd"/>
          <path id="Path_684" data-name="Path 684" d="M398.74,146.7a3.033,3.033,0,1,1-3.045,3.035A3.037,3.037,0,0,1,398.74,146.7Z" transform="translate(-394.825 -145.882)" fill="#e4e4e4" fill-rule="evenodd"/>
          <path id="Path_685" data-name="Path 685" d="M398.738,146.719a3.017,3.017,0,1,1-3.031,3.017A3.023,3.023,0,0,1,398.738,146.719Z" transform="translate(-394.823 -145.879)" fill="#e5e5e5" fill-rule="evenodd"/>
          <path id="Path_686" data-name="Path 686" d="M398.735,146.73a3,3,0,1,1-3.012,3A3.011,3.011,0,0,1,398.735,146.73Z" transform="translate(-394.82 -145.877)" fill="#e6e6e6" fill-rule="evenodd"/>
          <path id="Path_687" data-name="Path 687" d="M398.733,146.742a2.987,2.987,0,1,1-3,2.99A2.993,2.993,0,0,1,398.733,146.742Z" transform="translate(-394.818 -145.875)" fill="#e7e7e7" fill-rule="evenodd"/>
          <path id="Path_688" data-name="Path 688" d="M398.731,146.754a2.974,2.974,0,1,1-2.985,2.976A2.978,2.978,0,0,1,398.731,146.754Z" transform="translate(-394.816 -145.873)" fill="#e8e8e8" fill-rule="evenodd"/>
          <path id="Path_689" data-name="Path 689" d="M398.729,146.77a2.957,2.957,0,1,1-2.971,2.957A2.961,2.961,0,0,1,398.729,146.77Z" transform="translate(-394.814 -145.87)" fill="#e9e9e9" fill-rule="evenodd"/>
          <path id="Path_690" data-name="Path 690" d="M398.727,146.781a2.944,2.944,0,1,1-2.954,2.944A2.95,2.95,0,0,1,398.727,146.781Z" transform="translate(-394.811 -145.868)" fill="#eaeaea" fill-rule="evenodd"/>
          <path id="Path_691" data-name="Path 691" d="M398.725,146.793a2.928,2.928,0,1,1-2.94,2.93A2.935,2.935,0,0,1,398.725,146.793Z" transform="translate(-394.809 -145.866)" fill="#ebebeb" fill-rule="evenodd"/>
          <path id="Path_692" data-name="Path 692" d="M398.723,146.805a2.914,2.914,0,1,1-2.926,2.916A2.921,2.921,0,0,1,398.723,146.805Z" transform="translate(-394.807 -145.864)" fill="#ececec" fill-rule="evenodd"/>
          <path id="Path_693" data-name="Path 693" d="M398.721,146.82a2.9,2.9,0,1,1-2.912,2.9A2.9,2.9,0,0,1,398.721,146.82Z" transform="translate(-394.805 -145.862)" fill="#ededed" fill-rule="evenodd"/>
          <path id="Path_694" data-name="Path 694" d="M398.719,146.832a2.885,2.885,0,1,1-2.9,2.885A2.89,2.89,0,0,1,398.719,146.832Z" transform="translate(-394.804 -145.86)" fill="#eee" fill-rule="evenodd"/>
          <path id="Path_695" data-name="Path 695" d="M398.716,146.844a2.871,2.871,0,1,1-2.88,2.871A2.878,2.878,0,0,1,398.716,146.844Z" transform="translate(-394.801 -145.858)" fill="#efefef" fill-rule="evenodd"/>
          <path id="Path_696" data-name="Path 696" d="M398.714,146.855a2.855,2.855,0,1,1-2.866,2.858A2.861,2.861,0,0,1,398.714,146.855Z" transform="translate(-394.799 -145.856)" fill="#f0f0f0" fill-rule="evenodd"/>
        </g>
      </g>
    </g>
    <path id="Path_698" data-name="Path 698" d="M405.048,148.84a17.65,17.65,0,0,1,6.134-1.986h.175q3.914-.293,3.914,3.038,0,1.227-2.8,2.746-2.746,1.52-2.746,2.22a1.849,1.849,0,0,0,.234.643,4.173,4.173,0,0,1,.234,1.753,2.245,2.245,0,0,0,.467,1.11,1.912,1.912,0,0,0,1.46.935q.876,0,1.519-1.344a2.631,2.631,0,0,0,.234-.643q1.227-.584,2.4-1.052a2.055,2.055,0,0,0,.409-.409.742.742,0,0,0-.058-.643,1.03,1.03,0,0,0-.409-.409.628.628,0,0,0-.584.058q-.759.351-1.636.7a3.539,3.539,0,0,1,0-1.285q.058-1.519,1.285-1.519a1.85,1.85,0,0,1,1.285.643,2.986,2.986,0,0,0,.643.584.787.787,0,0,0,.759-.526c.039-.351.058-.546.058-.584q0-.293-.7-1.11a2.262,2.262,0,0,1-.7-1.519q0-.468.175-.526a2.308,2.308,0,0,1,1.46-.292,4.052,4.052,0,0,1,1.46.292,3.53,3.53,0,0,0,1.168.351q1.635.175,3.1.234a4.663,4.663,0,0,1,.993.058,3.37,3.37,0,0,1,1.168.643,2.284,2.284,0,0,0-.292.117.719.719,0,0,0-.526.351.935.935,0,0,0-.058.584.947.947,0,0,0,.409.467.8.8,0,0,0,.526.058,4.523,4.523,0,0,1,.7-.175,9.478,9.478,0,0,1,.35,1.285,9.816,9.816,0,0,1,.351,1.869q-.293,2.336-.584,4.148a4.065,4.065,0,0,0-.993-.117,5.836,5.836,0,0,0-4.265,1.811,5.571,5.571,0,0,0-1.577,2.57,1.114,1.114,0,0,0-.351-.058q-1.519-.175-3.038-.292a.793.793,0,0,0-.584.234.727.727,0,0,0-.234.526.7.7,0,0,0,.175.584.941.941,0,0,0,.526.234q1.52.058,2.979.234h.292v.234a5.9,5.9,0,0,0,1.811,4.323,6.284,6.284,0,0,0,3.155,1.694,3.811,3.811,0,0,1,.759,1.869,1.8,1.8,0,0,1-.117.759q-.293.468-1.285.467a2.163,2.163,0,0,1-1.227-.526,5.107,5.107,0,0,0-.526-.467.891.891,0,0,0-.292-.35q-1.285-.934-2.57-1.753a.628.628,0,0,0-.584-.058.238.238,0,0,0-.175.058,9.766,9.766,0,0,0-2.746-.409.909.909,0,0,0,.467-.467.616.616,0,0,0,0-.526.756.756,0,0,0-.35-.467q-1.4-.643-2.8-1.227a.907.907,0,0,0-.643,0,.706.706,0,0,0-.409.409.756.756,0,0,0,0,.584,1.023,1.023,0,0,0,.409.409q1.4.584,2.8,1.227a.932.932,0,0,0,.2.058,8.455,8.455,0,0,0-4.294,1.344,4.61,4.61,0,0,0-2.4,2.687,12.186,12.186,0,0,1-.292,1.4,4.091,4.091,0,0,0-2.454,1.928q.117.058,1.168.876a6.593,6.593,0,0,0,.7.409v.584q.058.934,2.629,2.921a7.711,7.711,0,0,1,.818.7,4.688,4.688,0,0,1,1.928,2.629,11.635,11.635,0,0,0,1.227.876,2.681,2.681,0,0,1,.292.175l.117.058,1.519.584a.524.524,0,0,1,.234.058,14.366,14.366,0,0,0,6.309,0,9.034,9.034,0,0,1,2.161-.351,3.678,3.678,0,0,1,1.168.175,3.216,3.216,0,0,0,.643.175,2.461,2.461,0,0,0,1.11-.234,3.931,3.931,0,0,1,1.928-.292,4.7,4.7,0,0,1,.73.058,6.957,6.957,0,0,1,1.373.292c.111.223.219.446.321.672q.335.715.613,1.431a.561.561,0,0,0,.467.351.437.437,0,0,0,.526,0,.456.456,0,0,0,.409-.409,1.281,1.281,0,0,0,.058-.175.618.618,0,0,0-.058-.351,1.828,1.828,0,0,0-.234-.584.238.238,0,0,0,.175.058q.351.175,1.577.935c-.134.168-.271.354-.409.555l-.058.088a2.89,2.89,0,0,1-.175.292,5.808,5.808,0,0,0-3.739,1.753,5.669,5.669,0,0,0-1.753,4.148,35.264,35.264,0,0,1-3.388,2.57,11.557,11.557,0,0,1-2.1-2.746,4.447,4.447,0,0,0-2.57-1.636,6.3,6.3,0,0,1-2.278-1.052,30.709,30.709,0,0,0-5.112-6.046A22.444,22.444,0,0,0,410.248,185q-2.4-1.052-3.1-1.46-1.052-.526-1.168-1.227-.759-.351-1.11-1.928-.175-2.045-.175-2.1a12.614,12.614,0,0,1,.876-4.557,7.421,7.421,0,0,1,3.505-4.148,9.7,9.7,0,0,0,4.732-4.381,14.716,14.716,0,0,1,3.272-4.265.155.155,0,0,0-.175-.175q-2.511,1.52-4.381,2.512a3.158,3.158,0,0,1-.467.292q-1.109,0-2.22.058a.616.616,0,0,0-.526.234.789.789,0,0,0-.234.584.981.981,0,0,0,.058.234q-1.227.293-2.454.467a1.43,1.43,0,0,0,.117-.526.573.573,0,0,0-.292-.526.557.557,0,0,0-.526-.175q-1.52.117-3.1.351a.556.556,0,0,0-.467.234v.058a6.043,6.043,0,0,1-.526-.351q1.169-.818,2.337-1.519a.692.692,0,0,0,.351-.467.735.735,0,0,0-.117-.584.7.7,0,0,0-.467-.351,1.009,1.009,0,0,0-.584.058q-1.169.759-2.337,1.577-.526-1.577-.526-1.636l2.512-5.375a12.742,12.742,0,0,0,2.045-5.9A10.724,10.724,0,0,0,405.048,148.84Zm5.433,9.99a1.179,1.179,0,0,0-.058-.643.742.742,0,0,0-.409-.351.943.943,0,0,0-.584.058q-1.344.759-2.746,1.519a1.058,1.058,0,0,0-.35.467.735.735,0,0,0,.117.584.692.692,0,0,0,.409.351.738.738,0,0,0,.643-.058q1.285-.818,2.629-1.519A.7.7,0,0,0,410.481,158.829Zm11.626-6.6q-1.462.526-2.921,1.11a.706.706,0,0,0-.409.409.749.749,0,0,0,0,.584.706.706,0,0,0,.409.409.756.756,0,0,0,.584,0q1.4-.584,2.863-1.052a1.03,1.03,0,0,0,.409-.409.749.749,0,0,0,0-.584.535.535,0,0,0-.351-.409A1.011,1.011,0,0,0,422.107,152.228Zm7.361,66.89a15.349,15.349,0,0,1,1.285-2.454q1.519-2.629,1.636-2.979v-.117q1.348-.45,2.629-1.022a26.882,26.882,0,0,0,5.784-3.564q.5-.412.993-.847v.058c-.01.076-.021.153-.029.234a3.059,3.059,0,0,1-.2.526,8.992,8.992,0,0,1-2.337,3.856,7.3,7.3,0,0,0-1.2,1.607,22.152,22.152,0,0,0-1.139,2.366q-.293.818-2.454,1.694a20.291,20.291,0,0,1-3.038,1.052c-.584.117-.916.175-.993.175A4.117,4.117,0,0,1,429.468,219.118ZM423.217,164.5a.168.168,0,0,0-.117.058.632.632,0,0,0-.292.467,1.179,1.179,0,0,0,.058.643.17.17,0,0,0,.117.058,3.065,3.065,0,0,0,.876,2.162,2.646,2.646,0,0,0-.175.935,5.445,5.445,0,0,0,.058.759,5.338,5.338,0,0,1-.935-.759,4.514,4.514,0,0,1,0-6.309,4.383,4.383,0,0,1,3.213-1.344,2.195,2.195,0,0,1,.7.117q-.175.759-.292,1.4h-.409a3.03,3.03,0,0,0-2.8,1.811Zm9,30.67a4.3,4.3,0,0,1,.818-1.11,4.62,4.62,0,0,1,.7-.584l-.117.175-.584.584Z" transform="translate(4.067 0.721)" fill="#5bde6e" fill-rule="evenodd"/>
    <path id="Path_699" data-name="Path 699" d="M470.514,167.97a.583.583,0,0,1-.175.058.508.508,0,0,1-.526-.058.681.681,0,0,1-.409-.467.758.758,0,0,1,.029-.409.562.562,0,0,1,.088-.175,7.948,7.948,0,0,0,.993-2.454,1.045,1.045,0,0,1,.35-.526.736.736,0,0,1,.584-.117,1.068,1.068,0,0,1,.467.351.8.8,0,0,1,.117.584,9.967,9.967,0,0,1-1.168,2.921A.648.648,0,0,1,470.514,167.97ZM386.39,198.231l1.4.117a.727.727,0,0,1,.526.234.634.634,0,0,1,.175.584.886.886,0,0,1-.234.526.714.714,0,0,1-.526.175,3.316,3.316,0,0,1-.643-.058q-.876-.058-1.636-.175a.786.786,0,0,1-.526-.292.734.734,0,0,1-.117-.584.527.527,0,0,1,.292-.467.946.946,0,0,1,.584-.175Zm65.371-47.145q-.643-.117-1.344-.234a.692.692,0,0,1-.467-.351.453.453,0,0,1-.117-.526.476.476,0,0,1,.117-.351l.175-.175a.735.735,0,0,1,.584-.117q1.519.233,3.038.584a.681.681,0,0,1,.467.409.507.507,0,0,1,.058.526.7.7,0,0,1-.35.467.8.8,0,0,1-.584.117A13.06,13.06,0,0,0,451.761,151.087Zm13.845,21.849a.419.419,0,0,1-.409-.234.727.727,0,0,1-.234-.526.782.782,0,0,1,.292-.526,26.138,26.138,0,0,0,2.1-1.986.616.616,0,0,1,.526-.234.855.855,0,0,1,.526.175.727.727,0,0,1,.234.526.946.946,0,0,1-.175.584q-.992.994-2.22,2.1a.735.735,0,0,1-.584.117ZM397.9,161.544l-.351.117a.853.853,0,0,1-.526-.175,18.64,18.64,0,0,0-1.869-1.344,5.382,5.382,0,0,0-.584-.409,1.015,1.015,0,0,1-.292-.526.8.8,0,0,1,.117-.584.746.746,0,0,1,.467-.292.628.628,0,0,1,.584.058,8.046,8.046,0,0,0,.7.526,16.591,16.591,0,0,1,1.4,1.052,3.851,3.851,0,0,1,.409.35.527.527,0,0,1,.292.467.634.634,0,0,1-.175.584A.381.381,0,0,1,397.9,161.544Zm8.062,2.337-.234.117a.805.805,0,0,1-.584.117.692.692,0,0,1-.467-.351.633.633,0,0,1-.117-.526.719.719,0,0,1,.35-.526.631.631,0,0,1,.234-.117q1.167-.818,2.337-1.577a1.009,1.009,0,0,1,.584-.058.694.694,0,0,1,.467.351.735.735,0,0,1,.117.584.692.692,0,0,1-.351.467Q407.128,163.063,405.96,163.881Zm-17.7-8.3a1.01,1.01,0,0,1,.584-.058,18.425,18.425,0,0,1,3.038.993.706.706,0,0,1,.409.409.757.757,0,0,1,0,.584.706.706,0,0,1-.409.409.756.756,0,0,1-.584,0,19.778,19.778,0,0,0-2.8-.935.692.692,0,0,1-.467-.351.633.633,0,0,1-.117-.526A1.045,1.045,0,0,1,388.259,155.585Zm3.213,18.052a.557.557,0,0,1,.526-.175.794.794,0,0,1,.584.234.634.634,0,0,1,.175.584,1.275,1.275,0,0,1-.234.526q-1.109.994-2.161,1.986a.727.727,0,0,1-.526.234.616.616,0,0,1-.526-.234.667.667,0,0,1-.292-.526.573.573,0,0,1,.292-.526Q390.3,174.688,391.472,173.637Zm5.024-4.44a.634.634,0,0,1,.584-.175.729.729,0,0,1,.526.234.853.853,0,0,1,.175.526.791.791,0,0,1-.292.526q-1.169.994-2.22,1.986a.558.558,0,0,1-.526.175.616.616,0,0,1-.526-.234.794.794,0,0,1-.234-.584,1.015,1.015,0,0,1,.292-.526Q395.328,170.131,396.5,169.2Zm7.945-2.687a2.2,2.2,0,0,0,.175-.876,3.317,3.317,0,0,0-.058-.643q1.052.117,2.045.292a1.034,1.034,0,0,1-.292-.467.634.634,0,0,1,.175-.584v-.058a.556.556,0,0,1,.467-.234q1.577-.233,3.1-.351a.557.557,0,0,1,.526.175.573.573,0,0,1,.292.526,1.43,1.43,0,0,1-.117.526h-.058a.616.616,0,0,1-.526.234q-1.46.175-2.979.351a2.343,2.343,0,0,1,.35.292.633.633,0,0,1,.117.526.787.787,0,0,1-.292.526.92.92,0,0,1-.643.117Q405.61,166.685,404.441,166.51Zm-4.849,1.577a.727.727,0,0,1-.292-.175l-.058-.058a.453.453,0,0,1-.117-.526.613.613,0,0,1,.234-.526q.293-.233.526-.409a2.37,2.37,0,0,0,.584.935,1.053,1.053,0,0,0,.292.292,3.854,3.854,0,0,0-.409.351,1.05,1.05,0,0,1-.526.175A.523.523,0,0,1,399.593,168.087Zm16.533-4.849H417a.853.853,0,0,1,.526.175.793.793,0,0,1,.234.584.727.727,0,0,1-.234.526.853.853,0,0,1-.526.175q-1.519,0-3.038.117a1.127,1.127,0,0,1-.584-.175,2.69,2.69,0,0,1-.175-.292.98.98,0,0,1-.058-.234.789.789,0,0,1,.234-.584.616.616,0,0,1,.526-.234Q415.015,163.239,416.125,163.238Zm3.768,7.711a.931.931,0,0,1-.2-.058q-1.4-.643-2.8-1.227a1.023,1.023,0,0,1-.409-.409.756.756,0,0,1,0-.584.706.706,0,0,1,.409-.409.907.907,0,0,1,.643,0q1.4.584,2.8,1.227a.757.757,0,0,1,.35.467.616.616,0,0,1,0,.526.909.909,0,0,1-.467.467h-.321Zm-38.119-1.694a.787.787,0,0,1-.292-.526.8.8,0,0,1,.759-.759.853.853,0,0,1,.526.175q.992.934,2.22,1.928a.746.746,0,0,1,.292.467,1.127,1.127,0,0,1-.175.584.616.616,0,0,1-.526.234.633.633,0,0,1-.526-.117A23.9,23.9,0,0,1,381.775,169.255Zm-1.285-3.1a.726.726,0,0,1-.234.526.945.945,0,0,1-.584.175,1.015,1.015,0,0,1-.526-.292,15.154,15.154,0,0,1-1.753-2.57.633.633,0,0,1-.117-.526.71.71,0,0,1,.409-.467,1.009,1.009,0,0,1,.584-.058.534.534,0,0,1,.409.351,15.733,15.733,0,0,0,1.636,2.278A.7.7,0,0,1,380.489,166.159Zm-2.57-9.23a.527.527,0,0,1,.467-.292.793.793,0,0,1,.584.234.675.675,0,0,1,.234.467.945.945,0,0,1-.175.584,4.321,4.321,0,0,0-1.11,2.278.727.727,0,0,1-.234.526.945.945,0,0,1-.584.175,1.015,1.015,0,0,1-.526-.292.853.853,0,0,1-.175-.526A5.233,5.233,0,0,1,377.919,156.929Zm6.952-1.869a.793.793,0,0,1,.584.234.853.853,0,0,1,.175.526,1.127,1.127,0,0,1-.175.584.946.946,0,0,1-.584.175,14.544,14.544,0,0,0-2.863.292.735.735,0,0,1-.584-.117.573.573,0,0,1-.292-.526.629.629,0,0,1,.117-.526.692.692,0,0,1,.467-.351A17.258,17.258,0,0,1,384.871,155.059Zm2.863,23.309a.727.727,0,0,1,.234.526.794.794,0,0,1-.234.584l-.117.117q-.934,1.052-1.811,2.045a.729.729,0,0,1-.526.234.634.634,0,0,1-.584-.175.616.616,0,0,1-.234-.526.557.557,0,0,1,.175-.526q.934-1.109,2.045-2.22a.616.616,0,0,1,.526-.234A.853.853,0,0,1,387.733,178.369Zm-5.55,18.753a.692.692,0,0,1,.35.467.628.628,0,0,1-.058.584.534.534,0,0,1-.409.351.756.756,0,0,1-.584,0,6.284,6.284,0,0,1-2.687-2.278.628.628,0,0,1-.058-.584.747.747,0,0,1,.292-.467.92.92,0,0,1,.643-.117,1.171,1.171,0,0,1,.409.351A4.893,4.893,0,0,0,382.184,197.121Zm-3.1-7.945a.756.756,0,0,1,.584,0,.545.545,0,0,1,.409.409.631.631,0,0,1,.058.584,10.591,10.591,0,0,0-.7,2.863,1.034,1.034,0,0,1-.292.467.557.557,0,0,1-.526.175.616.616,0,0,1-.526-.234,1.127,1.127,0,0,1-.175-.584,9.87,9.87,0,0,1,.759-3.271A1.022,1.022,0,0,1,379.087,189.176Zm4.206-5.725a.746.746,0,0,1,.292.467.8.8,0,0,1-.117.584q-.936,1.227-1.694,2.4a.692.692,0,0,1-.467.351.8.8,0,0,1-.584-.117,1.171,1.171,0,0,1-.351-.409.92.92,0,0,1,.117-.643,29.422,29.422,0,0,1,1.753-2.512.746.746,0,0,1,.467-.292A.635.635,0,0,1,383.293,183.451Zm40.952-19.8a.375.375,0,0,0,.175.175,1.127,1.127,0,0,1,.175.584,1.015,1.015,0,0,1-.292.526,2.68,2.68,0,0,1-.292.175h-.292q-1.46-.175-2.979-.234a.942.942,0,0,1-.526-.234.7.7,0,0,1-.175-.584.727.727,0,0,1,.234-.526.793.793,0,0,1,.584-.234q1.519.117,3.038.292A1.114,1.114,0,0,1,424.246,163.647Zm-9.7-5.141a.7.7,0,0,1-.35.409q-1.344.7-2.629,1.519a.738.738,0,0,1-.643.058.692.692,0,0,1-.409-.351.735.735,0,0,1-.117-.584,1.058,1.058,0,0,1,.35-.467q1.4-.759,2.746-1.519a.943.943,0,0,1,.584-.058.742.742,0,0,1,.409.351A1.179,1.179,0,0,1,414.548,158.506Zm3.505-3.271q.876-.35,1.636-.7a.628.628,0,0,1,.584-.058,1.03,1.03,0,0,1,.409.409.742.742,0,0,1,.058.643,2.057,2.057,0,0,1-.409.409q-1.169.468-2.4,1.052a1.446,1.446,0,0,1-.351.175.628.628,0,0,1-.584.058.947.947,0,0,1-.467-.409.749.749,0,0,1,0-.584.737.737,0,0,1,.35-.409Q417.526,155.526,418.053,155.235Zm8.12-3.33a1.011,1.011,0,0,1,.584.058.535.535,0,0,1,.35.409.749.749,0,0,1,0,.584,1.03,1.03,0,0,1-.409.409q-1.46.468-2.863,1.052a.756.756,0,0,1-.584,0,.706.706,0,0,1-.409-.409.749.749,0,0,1,0-.584.706.706,0,0,1,.409-.409Q424.712,152.431,426.173,151.9Zm4.79.175a4.522,4.522,0,0,0-.7.175.8.8,0,0,1-.526-.058.947.947,0,0,1-.409-.467.935.935,0,0,1,.058-.584.719.719,0,0,1,.526-.351,2.282,2.282,0,0,1,.292-.117l2.687-.7a.7.7,0,0,1,.584.175.588.588,0,0,1,.292.467.628.628,0,0,1-.058.584.747.747,0,0,1-.467.292Q432.131,151.729,430.964,152.08Zm3.622,13.612q.759.233,1.577.526a10.024,10.024,0,0,0,1.285.409.947.947,0,0,1,.467.409,1.489,1.489,0,0,1,0,.584.787.787,0,0,1-.993.467q-.584-.233-1.168-.409-.759-.233-1.577-.467a.17.17,0,0,0-.117-.058.692.692,0,0,1-.467-.351.756.756,0,0,1,0-.584.692.692,0,0,1,.351-.467.628.628,0,0,1,.584-.058Zm5.842,2.337a.907.907,0,0,1,.643,0q1.4.584,2.8,1.285a.742.742,0,0,1,.351.409,1.474,1.474,0,0,1,0,.584.947.947,0,0,1-.467.409.6.6,0,0,1-.584-.058q-1.344-.584-2.746-1.227a.7.7,0,0,1-.409-.409.616.616,0,0,1,0-.526A.992.992,0,0,1,440.428,168.028Zm.175-18.4a.633.633,0,0,1-.117.526,1.015,1.015,0,0,1-.526.292q-1.519.117-3.038.351a.557.557,0,0,1-.526-.175,1.067,1.067,0,0,1-.35-.467.945.945,0,0,1,.175-.584.747.747,0,0,1,.467-.292q1.577-.233,3.155-.351a.557.557,0,0,1,.526.175A.616.616,0,0,1,440.6,149.626Zm3.505.643H443.7a.853.853,0,0,1-.526-.175.777.777,0,0,1-.175-.467.17.17,0,0,1-.058-.117.8.8,0,0,1,.759-.759q1.577,0,3.155.117a.727.727,0,0,1,.526.234,1.127,1.127,0,0,1,.175.584,1.015,1.015,0,0,1-.292.526.948.948,0,0,1-.584.175Q445.394,150.268,444.108,150.269ZM422.96,171.358a.238.238,0,0,1,.175-.058.628.628,0,0,1,.584.058q1.285.818,2.57,1.753a.89.89,0,0,1,.292.351v.117a.735.735,0,0,1-.117.584.632.632,0,0,1-.467.292.734.734,0,0,1-.584-.117A23.178,23.178,0,0,0,422.9,172.7a1.066,1.066,0,0,1-.351-.467.735.735,0,0,1,.117-.584A.533.533,0,0,1,422.96,171.358Zm15.656,17.584a1.828,1.828,0,0,1,.234.584.618.618,0,0,1,.058.351,1.272,1.272,0,0,1-.058.175.456.456,0,0,1-.409.409.437.437,0,0,1-.526,0,.561.561,0,0,1-.467-.351q-.279-.717-.613-1.431c-.1-.226-.21-.449-.321-.672a4.128,4.128,0,0,0-.292-.584.738.738,0,0,1-.058-.643,1.03,1.03,0,0,1,.409-.409.628.628,0,0,1,.584-.058.706.706,0,0,1,.409.409A19.5,19.5,0,0,1,438.617,188.943ZM455.5,176.616a1.374,1.374,0,0,1,.292.467.946.946,0,0,1-.175.584,1.02,1.02,0,0,1-.526.292.853.853,0,0,1-.526-.175q-1.227-.934-2.454-1.753a.786.786,0,0,1-.292-.526.955.955,0,0,1,.643-.876.855.855,0,0,1,.526.175Q454.273,175.681,455.5,176.616Zm-8.646-5.608a.939.939,0,0,1,.409.117q1.285.7,2.57,1.519a1.067,1.067,0,0,1,.35.467.8.8,0,0,1-.117.584.692.692,0,0,1-.467.35.8.8,0,0,1-.584-.117q-1.111-.7-2.161-1.285l-.351-.234a.692.692,0,0,1-.35-.409.738.738,0,0,1,.058-.643,1.067,1.067,0,0,1,.467-.351Zm10.866,9.464-.292-.292a1.045,1.045,0,0,1-.292-.584.62.62,0,0,1,.175-.526c.078-.117.155-.175.234-.175a.971.971,0,0,1,.292-.058.7.7,0,0,1,.584.175q.6.5,1.2,1.052.542.449,1.081.935a.853.853,0,0,1,.175.526.5.5,0,0,1-.175.526.669.669,0,0,1-.526.292.714.714,0,0,1-.526-.175l-1.461-1.285Zm5.082,4.79c-.194-.2-.37-.37-.526-.526a.794.794,0,0,1-.234-.584.886.886,0,0,1,.234-.526.855.855,0,0,1,.526-.175h.058a.729.729,0,0,1,.526.234q.526.526,1.052,1.11.641.7,1.227,1.4a.8.8,0,0,1,.117.584.671.671,0,0,1-.292.526.735.735,0,0,1-.584.117.527.527,0,0,1-.467-.292q-.526-.584-1.11-1.285A7.18,7.18,0,0,1,462.8,185.262ZM456.435,151.5a.706.706,0,0,1,.409-.409.943.943,0,0,1,.584-.058q1.4.526,2.8,1.168a.947.947,0,0,1,.467.409,1.489,1.489,0,0,1,0,.584.947.947,0,0,1-.467.409.756.756,0,0,1-.584,0,23.837,23.837,0,0,0-2.746-1.11.705.705,0,0,1-.409-.409A.6.6,0,0,1,456.435,151.5Zm-29.151,12.677a1.53,1.53,0,0,1,.467-.058l3.038.584a1.067,1.067,0,0,1,.467.351.738.738,0,0,1,.058.643.692.692,0,0,1-.35.409.633.633,0,0,1-.526.117q-1.46-.351-2.979-.584a.865.865,0,0,1-.409-.234.17.17,0,0,1-.117-.058,1.179,1.179,0,0,1-.058-.643.632.632,0,0,1,.292-.467A.168.168,0,0,1,427.283,164.173Zm-17.059,2.045a1.18,1.18,0,0,1,.643-.058q1.46.408,2.979.818a1.17,1.17,0,0,1,.409.351.92.92,0,0,1,.117.643,1.03,1.03,0,0,1-.409.409.8.8,0,0,1-.584.117q-1.46-.468-2.921-.876a.692.692,0,0,1-.467-.35.8.8,0,0,1-.117-.584A1.067,1.067,0,0,1,410.225,166.217Zm22.433,14.9a.556.556,0,0,1,.234-.467,1.124,1.124,0,0,1,.584-.175,1.02,1.02,0,0,1,.526.292,22.488,22.488,0,0,1,1.694,2.57.8.8,0,0,1,.117.584.809.809,0,0,1-.876.584.719.719,0,0,1-.526-.351,26.871,26.871,0,0,0-1.636-2.454A.529.529,0,0,1,432.658,181.114Zm-4.615-4.907a.472.472,0,0,1,.234-.526.573.573,0,0,1,.526-.292.856.856,0,0,1,.526.175q1.109,1.052,2.161,2.22a.793.793,0,0,1,.234.584,1.276,1.276,0,0,1-.234.526.948.948,0,0,1-.584.175.727.727,0,0,1-.526-.234,27.049,27.049,0,0,0-2.1-2.1A.722.722,0,0,1,428.043,176.207Zm12.385,17.643q.293.994.643,2.1a.8.8,0,0,1-.117.584,1.171,1.171,0,0,1-.409.351.943.943,0,0,1-.584-.058.692.692,0,0,1-.351-.467q-.293-1.109-.643-2.22l-.234-.584a.628.628,0,0,1,.058-.584.706.706,0,0,1,.409-.409,1.247,1.247,0,0,1,.643.058.756.756,0,0,1,.35.467C440.272,193.324,440.349,193.578,440.428,193.85Zm29.093-35.928a9.432,9.432,0,0,1,2.045,2.57,1.746,1.746,0,0,1,0,.643,1.16,1.16,0,0,1-.351.409.907.907,0,0,1-.643,0,.533.533,0,0,1-.409-.351,7.016,7.016,0,0,0-1.694-2.162.722.722,0,0,1-.234-.526.613.613,0,0,1,.234-.526.573.573,0,0,1,.526-.292A.729.729,0,0,1,469.521,157.922Zm-6.368-4.089a.874.874,0,0,1,.584.117q1.286.7,2.57,1.577a1.067,1.067,0,0,1,.35.467.8.8,0,0,1-.117.584,1.052,1.052,0,0,1-.526.351,1.155,1.155,0,0,1-.526-.117q-1.285-.876-2.512-1.577a.532.532,0,0,1-.35-.409.607.607,0,0,1,.058-.584A.707.707,0,0,1,463.153,153.833Zm3.68,35.344a.616.616,0,0,1,.526,0,.561.561,0,0,1,.467.35,18.469,18.469,0,0,1,1.344,2.979.86.86,0,0,1-.058.526.947.947,0,0,1-.467.409.628.628,0,0,1-.584-.058.535.535,0,0,1-.35-.409,18.575,18.575,0,0,0-1.227-2.746,1.02,1.02,0,0,1-.058-.584A.953.953,0,0,1,466.833,189.176Zm2.6,9.61c-.058.264-.127.527-.2.789-.021.06-.041.118-.058.175a.709.709,0,0,1-.409.409,1.011,1.011,0,0,1-.584.058.948.948,0,0,1-.409-.467.507.507,0,0,1-.058-.526,9.536,9.536,0,0,0,.526-2.746.789.789,0,0,1,.234-.584.853.853,0,0,1,.526-.175.616.616,0,0,1,.526.234.794.794,0,0,1,.234.584A11.114,11.114,0,0,1,469.433,198.786Zm-2.161,3.593a.71.71,0,0,1,.088.234,1.128,1.128,0,0,1-.175.584l-.029.029a14.967,14.967,0,0,1-1.607,1.723q-.23.2-.467.409a1.2,1.2,0,0,1-.175.117.8.8,0,0,1-.409.117,1.282,1.282,0,0,1-.526-.234.938.938,0,0,1-.234-.584v-.029a1.056,1.056,0,0,1,.292-.5c.054-.049.113-.1.175-.146a20.709,20.709,0,0,0,1.636-1.694c.061-.069.119-.137.175-.2a.616.616,0,0,1,.526-.234h.058a.537.537,0,0,1,.467.175A.758.758,0,0,1,467.272,202.379Zm-7.478,4.82q.382-.224.759-.438c.206-.14.41-.276.613-.409a1.294,1.294,0,0,1,.584-.117,1.067,1.067,0,0,1,.467.351.8.8,0,0,1,.117.584.7.7,0,0,1-.351.467q-.356.237-.73.467-.9.554-1.9,1.052a.6.6,0,0,1-.584.058.532.532,0,0,1-.409-.351.628.628,0,0,1-.058-.584,2.344,2.344,0,0,1,.292-.351.17.17,0,0,1,.058-.117l.058-.029Q459.269,207.49,459.794,207.2Z" transform="translate(0 1.044)" fill="#ff0054" fill-rule="evenodd"/>
    <path id="Path_700" data-name="Path 700" d="M394.951,155.95l2.629,5.608a.978.978,0,0,0-.292-.058.727.727,0,0,0-.526.234.616.616,0,0,0-.234.526.727.727,0,0,0,.234.526,3.854,3.854,0,0,0,.409.351,2.194,2.194,0,0,0-.409,1.285,2.38,2.38,0,0,0,.117.759q-.233.175-.526.409a.613.613,0,0,0-.234.526.453.453,0,0,0,.117.526l.058.058v2.337q.117.351.818,2.278a15.321,15.321,0,0,1,.643,1.928,1.225,1.225,0,0,1-.058.467,1.015,1.015,0,0,1-.7.175q-1.637,0-2.045-4.44-.058-4.381-.058-4.44a11.237,11.237,0,0,1-.643-2.278,6.8,6.8,0,0,1,.351-1.636c.117-.312.214-.564.292-.759a.38.38,0,0,0,.175-.175.634.634,0,0,0,.175-.584.527.527,0,0,0-.292-.467,3.853,3.853,0,0,0-.409-.35,2.387,2.387,0,0,1-.292-1.052A3.408,3.408,0,0,1,394.951,155.95Zm6.6,7.828a2.486,2.486,0,0,0-.643-1.052,2.745,2.745,0,0,0-.526-.409l1.227-2.57q0,.058.526,1.636a.632.632,0,0,0-.234.117.719.719,0,0,0-.35.526.633.633,0,0,0,.117.526.692.692,0,0,0,.467.351.805.805,0,0,0,.584-.117l.234-.117a6.03,6.03,0,0,0,.526.351.634.634,0,0,0-.175.584,1.033,1.033,0,0,0,.292.467Q402.6,163.9,401.552,163.778Zm6.193-.175q1.227-.175,2.454-.467a2.683,2.683,0,0,0,.175.292,1.128,1.128,0,0,0,.584.175q1.518-.117,3.038-.117a.853.853,0,0,0,.526-.175.727.727,0,0,0,.234-.526.794.794,0,0,0-.234-.584.853.853,0,0,0-.526-.175h-.876a3.158,3.158,0,0,0,.467-.292q1.87-.994,4.381-2.512a.155.155,0,0,1,.175.175,14.718,14.718,0,0,0-3.271,4.265,9.7,9.7,0,0,1-4.732,4.381,7.422,7.422,0,0,0-3.505,4.148,12.614,12.614,0,0,0-.876,4.557q0,.058.175,2.1.351,1.577,1.11,1.928.117.7,1.168,1.227.7.408,3.1,1.46a22.447,22.447,0,0,1,4.469,3.184,30.709,30.709,0,0,1,5.112,6.046,6.3,6.3,0,0,0,2.278,1.052,4.447,4.447,0,0,1,2.57,1.636,11.559,11.559,0,0,0,2.1,2.746q-.277.177-.555.351a31.088,31.088,0,0,1-10.136,3.914q-.643-1.928-.876-2.863c-.071-.224-.14-.449-.2-.672a20.02,20.02,0,0,1-.672-5.287q.293-3.155.292-3.33a5.014,5.014,0,0,0-.876-2.1q-.2-.366-.409-.7a9.343,9.343,0,0,0-1.285-1.694,3.52,3.52,0,0,0-2.921-.584q-2.163.233-5.2-3.622a7.723,7.723,0,0,1-.818-.409,2.027,2.027,0,0,1-.584-1.052,2.167,2.167,0,0,0-.643-1.11,4.963,4.963,0,0,1-1.577-2.162,10.236,10.236,0,0,0-2.454-4.323,10.753,10.753,0,0,1-1.4-2.162,10.42,10.42,0,0,1-.643-2.162q-.175-.759-.292-1.285a.524.524,0,0,0,.234.058,1.05,1.05,0,0,0,.526-.175,3.852,3.852,0,0,1,.409-.351,2.566,2.566,0,0,0,1.4.409,2.378,2.378,0,0,0,1.753-.7,2.268,2.268,0,0,0,.526-.818q1.169.175,2.278.351a.92.92,0,0,0,.643-.117.786.786,0,0,0,.292-.526.633.633,0,0,0-.117-.526,2.342,2.342,0,0,0-.351-.292q1.52-.175,2.979-.351a.616.616,0,0,0,.526-.234Zm16.3,50.358a.459.459,0,0,0-.175-.058q2.1-.175,4.381-.526a32.887,32.887,0,0,0,5.2-1.344v.117q-.117.351-1.636,2.979a15.352,15.352,0,0,0-1.285,2.454,10.3,10.3,0,0,0-.876-.643,15.093,15.093,0,0,0-2.454-1.577,17.941,17.941,0,0,1-2.512-1.11C424.453,214.136,424.238,214.039,424.044,213.961Zm-16.825-48.956a1.067,1.067,0,0,0-.351.467.8.8,0,0,0,.117.584.692.692,0,0,0,.467.35q1.46.408,2.921.876a.8.8,0,0,0,.584-.117,1.03,1.03,0,0,0,.409-.409.92.92,0,0,0-.117-.643,1.17,1.17,0,0,0-.409-.35q-1.52-.408-2.979-.818A1.179,1.179,0,0,0,407.219,165.005Z" transform="translate(3.006 2.256)" fill="#a1e051" fill-rule="evenodd"/>
    <path id="Path_701" data-name="Path 701" d="M459.472,206.2c-.233.386-.475.766-.73,1.139q-.219.314-.438.613-.319.445-.643.876l-.058.029a.17.17,0,0,0-.058.117,2.342,2.342,0,0,0-.292.351q-.531.678-1.11,1.344-.254.307-.526.613-.415.454-.847.906-.27.294-.555.584-.347.358-.7.7l-.292.292-.584.584q-.471.429-.935.847c-.206.19-.41.376-.613.555a40.935,40.935,0,0,1-4.06,3.1,41.722,41.722,0,0,1-52.227-5.375l-.321-.321a42.822,42.822,0,0,1-5.988-7.624,38.842,38.842,0,0,1-2.454-4.674,3.316,3.316,0,0,0,.643.058.714.714,0,0,0,.526-.175.886.886,0,0,0,.234-.526.634.634,0,0,0-.175-.584.727.727,0,0,0-.526-.234l-1.4-.117a42.368,42.368,0,0,1-2.687-15.189A40.158,40.158,0,0,1,394.8,154.7a.9.9,0,0,0,.234-.175,13.787,13.787,0,0,0,1.11,2.1l.7,1.4q-.934.994-1.753,1.928a8.052,8.052,0,0,1-.7-.526.628.628,0,0,0-.584-.058.747.747,0,0,0-.467.292.8.8,0,0,0-.117.584,1.015,1.015,0,0,0,.292.526,5.369,5.369,0,0,1,.584.409,35.222,35.222,0,0,0-7.419,18.227.853.853,0,0,0-.526-.175.616.616,0,0,0-.526.234q-1.109,1.109-2.045,2.22a.557.557,0,0,0-.175.526.616.616,0,0,0,.234.526.634.634,0,0,0,.584.175.729.729,0,0,0,.526-.234q.876-.994,1.811-2.045-.117,1.635-.117,3.33a36.325,36.325,0,0,0,5.4,19.6,39.5,39.5,0,0,0,5.082,6.485c.185.185.369.37.555.555a37.094,37.094,0,0,0,49.978,2.892c.214-.169.429-.345.643-.526q.5-.407.993-.847.305-.273.613-.555c.332-.313.662-.633.993-.964l.584-.584q.44-.463.876-.935c.075-.085.152-.173.234-.263a38.584,38.584,0,0,0,4.907-6.864,36.246,36.246,0,0,0,4.44-15.656,7.174,7.174,0,0,0,.526.584q.585.7,1.11,1.285a.527.527,0,0,0,.467.292.734.734,0,0,0,.584-.117.671.671,0,0,0,.292-.526.8.8,0,0,0-.117-.584q-.584-.7-1.227-1.4-.526-.584-1.052-1.11a.729.729,0,0,0-.526-.234h-.058v-.526a43.647,43.647,0,0,0-.234-4.557,36.168,36.168,0,0,0-10.808-22.083,42.265,42.265,0,0,0-7.653-6.017q1.285,0,2.57.117a.948.948,0,0,0,.584-.175,1.015,1.015,0,0,0,.292-.526,1.127,1.127,0,0,0-.175-.584.727.727,0,0,0-.526-.234q-1.577-.117-3.155-.117a.8.8,0,0,0-.759.759.17.17,0,0,0,.058.117,37.216,37.216,0,0,0-17.876-4.323,38.741,38.741,0,0,0-9.873,1.227,17.65,17.65,0,0,0-6.134,1.986,6.64,6.64,0,0,0-1.519-3.155A41.913,41.913,0,0,1,448.9,150.67a.476.476,0,0,0-.117.351.453.453,0,0,0,.117.526.692.692,0,0,0,.467.351q.7.117,1.344.234,1.4,1.169,2.8,2.57A40.179,40.179,0,0,1,464.2,172.694a.782.782,0,0,0-.292.526.727.727,0,0,0,.234.526.419.419,0,0,0,.409.234q.389,1.612.643,3.271a45.017,45.017,0,0,1,.526,5.667v1.168c0,.465-.011.923-.029,1.373a41.514,41.514,0,0,1-2.4,13.057,39.218,39.218,0,0,1-2.483,5.462q-.133.242-.263.467-.312.545-.643,1.081Q459.7,205.868,459.472,206.2Z" transform="translate(1.052)" fill="#a4e7f2" fill-rule="evenodd"/>
    <path id="Path_702" data-name="Path 702" d="M442.509,150.766a42.266,42.266,0,0,1,7.653,6.017,36.168,36.168,0,0,1,10.808,22.083,43.638,43.638,0,0,1,.234,4.557v.526a.855.855,0,0,0-.526.175.886.886,0,0,0-.234.526.793.793,0,0,0,.234.584c.155.155.332.331.526.526a36.247,36.247,0,0,1-4.44,15.656,38.581,38.581,0,0,1-4.907,6.864c-.082.09-.159.178-.234.263q-.436.473-.876.935l-.584.584c-.331.331-.661.651-.993.964q-.308.282-.613.555-.487.44-.993.847c-.214.181-.429.356-.643.526a37.582,37.582,0,0,1-49.978-2.892c-.186-.185-.37-.37-.555-.555a39.507,39.507,0,0,1-5.083-6.485,36.325,36.325,0,0,1-5.4-19.6q0-1.695.117-3.33l.117-.117a.794.794,0,0,0,.234-.584.727.727,0,0,0-.234-.526,35.222,35.222,0,0,1,7.419-18.227,18.633,18.633,0,0,1,1.869,1.344.853.853,0,0,0,.526.175l.351-.117c-.078.2-.175.447-.292.759a6.806,6.806,0,0,0-.351,1.636,11.237,11.237,0,0,0,.643,2.278q0,.058.058,4.44.408,4.439,2.045,4.44a1.015,1.015,0,0,0,.7-.175,1.225,1.225,0,0,0,.058-.467,15.324,15.324,0,0,0-.643-1.928q-.7-1.928-.818-2.278v-2.337a.727.727,0,0,0,.292.175q.117.526.292,1.285a10.42,10.42,0,0,0,.643,2.162,10.753,10.753,0,0,0,1.4,2.162,10.236,10.236,0,0,1,2.454,4.323,4.962,4.962,0,0,0,1.577,2.161,2.167,2.167,0,0,1,.643,1.11,2.027,2.027,0,0,0,.584,1.052,7.721,7.721,0,0,0,.818.409q3.037,3.856,5.2,3.622a3.52,3.52,0,0,1,2.921.584,9.34,9.34,0,0,1,1.285,1.694q.205.335.409.7a5.014,5.014,0,0,1,.876,2.1q0,.175-.292,3.33a20.022,20.022,0,0,0,.672,5.287c.064.223.133.447.2.672q.233.934.876,2.863v.058q-1.4.293-2.921.467a39.291,39.291,0,0,1-5.608.292v-.409a5.9,5.9,0,0,0-.409-2.22,6.136,6.136,0,0,0-5.608-3.856,5.9,5.9,0,0,0-4.323,1.811,6.4,6.4,0,0,0-1.344,1.928q-1.374-.61-2.716-1.344c-.123-.081-.25-.159-.38-.234.072.109.151.216.234.321a34.516,34.516,0,0,0,2.454,3.242,1.081,1.081,0,0,0-.058.351,5.842,5.842,0,0,0,.789,3.009,6.539,6.539,0,0,0,1.022,1.314,6,6,0,0,0,4.323,1.753h.876q8.763,5.959,20.564,5.083c.194.078.409.175.643.292a17.941,17.941,0,0,0,2.512,1.11,15.1,15.1,0,0,1,2.454,1.577,10.3,10.3,0,0,1,.876.643,4.117,4.117,0,0,0,.935.584c.077,0,.409-.058.993-.175a20.286,20.286,0,0,0,3.038-1.052q2.161-.876,2.454-1.694a22.146,22.146,0,0,1,1.139-2.366,7.3,7.3,0,0,1,1.2-1.607,8.992,8.992,0,0,0,2.337-3.856,3.052,3.052,0,0,0,.2-.526c.008-.081.019-.158.029-.234a35.282,35.282,0,0,0,2.8-2.8c.1-.119.193-.236.292-.351a41.332,41.332,0,0,0,4.586-6.4,30.667,30.667,0,0,0,4.206-17.175q-.005-.342-.029-.672l.467.409,1.461,1.285a.714.714,0,0,0,.526.175.669.669,0,0,0,.526-.292.5.5,0,0,0,.175-.526.853.853,0,0,0-.175-.526q-.54-.485-1.081-.935-.6-.549-1.2-1.052a.7.7,0,0,0-.584-.175.972.972,0,0,0-.292.058,41.073,41.073,0,0,0-3.505-12.034,28.346,28.346,0,0,0-11.859-12.969,37.438,37.438,0,0,1,4.674,17.117h-.175a1.067,1.067,0,0,0-.467.351.738.738,0,0,0-.058.643.692.692,0,0,0,.35.409l.351.234a31.982,31.982,0,0,1-6.485,17.292q-1.227-.759-1.577-.935a.239.239,0,0,1-.175-.058,19.507,19.507,0,0,0-1.052-2.22.706.706,0,0,0-.409-.409.628.628,0,0,0-.584.058,1.03,1.03,0,0,0-.409.409.738.738,0,0,0,.058.643,4.134,4.134,0,0,1,.292.584,6.958,6.958,0,0,0-1.373-.292,4.694,4.694,0,0,0-.73-.058,3.931,3.931,0,0,0-1.928.292,2.461,2.461,0,0,1-1.11.234,3.217,3.217,0,0,1-.643-.175,3.678,3.678,0,0,0-1.168-.175,9.032,9.032,0,0,0-2.162.351,14.367,14.367,0,0,1-6.309,0,.523.523,0,0,0-.234-.058l-1.519-.584-.117-.058a2.679,2.679,0,0,0-.292-.175,11.635,11.635,0,0,1-1.227-.876,4.688,4.688,0,0,0-1.928-2.629,7.717,7.717,0,0,0-.818-.7q-2.571-1.986-2.629-2.921v-.584a3.371,3.371,0,0,0,1.4.351,8.537,8.537,0,0,0,3.271-1.11q.058-.058,3.739-2.162l-.526-.409a6.459,6.459,0,0,1-2.8.351q-1.753-.233-2.57-.351a5.211,5.211,0,0,0-1.928.117,12.186,12.186,0,0,0,.292-1.4,4.61,4.61,0,0,1,2.4-2.687,8.455,8.455,0,0,1,4.294-1.344h.321a9.766,9.766,0,0,1,2.746.409.534.534,0,0,0-.292.292.735.735,0,0,0-.117.584,1.067,1.067,0,0,0,.351.467,23.172,23.172,0,0,1,2.512,1.636.735.735,0,0,0,.584.117.632.632,0,0,0,.467-.292.735.735,0,0,0,.117-.584v-.117a5.1,5.1,0,0,1,.526.467,2.163,2.163,0,0,0,1.227.526q.992,0,1.285-.467a1.8,1.8,0,0,0,.117-.759,3.81,3.81,0,0,0-.759-1.869,5.084,5.084,0,0,0,1.11.117,5.779,5.779,0,0,0,4.323-1.811,7.162,7.162,0,0,0,1.344-1.986q.584.175,1.168.409a.787.787,0,0,0,.993-.467,1.489,1.489,0,0,0,0-.584.947.947,0,0,0-.467-.409,10.029,10.029,0,0,1-1.285-.409v-.876a5.805,5.805,0,0,0-1.753-4.265,5.406,5.406,0,0,0-3.33-1.694q.293-1.81.584-4.148a9.822,9.822,0,0,0-.351-1.869,9.478,9.478,0,0,0-.351-1.285q1.169-.351,2.278-.584a.747.747,0,0,0,.467-.292.628.628,0,0,0,.058-.584.588.588,0,0,0-.292-.467.7.7,0,0,0-.584-.175l-2.687.7a3.37,3.37,0,0,0-1.168-.643,4.662,4.662,0,0,0-.993-.058q-1.46-.058-3.1-.234a3.53,3.53,0,0,1-1.168-.351,4.052,4.052,0,0,0-1.46-.292,2.308,2.308,0,0,0-1.461.292q-.175.058-.175.526a2.262,2.262,0,0,0,.7,1.519q.7.818.7,1.11c0,.039-.02.234-.058.584a.787.787,0,0,1-.759.526,2.984,2.984,0,0,1-.643-.584,1.85,1.85,0,0,0-1.285-.643q-1.227,0-1.285,1.519a3.541,3.541,0,0,0,0,1.285q-.526.293-1.168.584a.737.737,0,0,0-.35.409.749.749,0,0,0,0,.584.947.947,0,0,0,.467.409.628.628,0,0,0,.584-.058,1.446,1.446,0,0,0,.351-.175,2.63,2.63,0,0,1-.234.643q-.643,1.344-1.519,1.344a1.912,1.912,0,0,1-1.46-.935,2.245,2.245,0,0,1-.467-1.11,4.173,4.173,0,0,0-.234-1.753,1.85,1.85,0,0,1-.234-.643q0-.7,2.746-2.22,2.8-1.52,2.8-2.746,0-3.33-3.914-3.038h-.175a38.741,38.741,0,0,1,9.873-1.227,37.216,37.216,0,0,1,17.876,4.323.777.777,0,0,0,.175.467.853.853,0,0,0,.526.175Zm-46.151,6.893a3.407,3.407,0,0,0-.7,1.753,2.387,2.387,0,0,0,.292,1.052,16.6,16.6,0,0,0-1.4-1.052q.818-.934,1.753-1.928ZM394.9,169.694q-1.169.934-2.22,1.928a1.015,1.015,0,0,0-.292.526.794.794,0,0,0,.234.584.616.616,0,0,0,.526.234.558.558,0,0,0,.526-.175q1.052-.994,2.22-1.986a.791.791,0,0,0,.292-.526.853.853,0,0,0-.175-.526.729.729,0,0,0-.526-.234A.634.634,0,0,0,394.9,169.694Zm-5.024,4.44q-1.169,1.052-2.161,2.1a.573.573,0,0,0-.292.526.667.667,0,0,0,.292.526.616.616,0,0,0,.526.234.727.727,0,0,0,.526-.234q1.052-.994,2.161-1.986a1.276,1.276,0,0,0,.234-.526.634.634,0,0,0-.175-.584.794.794,0,0,0-.584-.234A.557.557,0,0,0,389.873,174.133ZM439,150.123a.616.616,0,0,0-.234-.526.557.557,0,0,0-.526-.175q-1.577.117-3.155.351a.746.746,0,0,0-.467.292.945.945,0,0,0-.175.584,1.067,1.067,0,0,0,.35.467.557.557,0,0,0,.526.175q1.519-.233,3.038-.351a1.015,1.015,0,0,0,.526-.292A.633.633,0,0,0,439,150.123Zm-.175,18.4a.992.992,0,0,0-.409.467.616.616,0,0,0,0,.526.7.7,0,0,0,.409.409q1.4.643,2.746,1.227a.6.6,0,0,0,.584.058.947.947,0,0,0,.467-.409,1.476,1.476,0,0,0,0-.584.742.742,0,0,0-.351-.409q-1.4-.7-2.8-1.285A.907.907,0,0,0,438.828,168.525Zm-5.842-2.337h-.058a.628.628,0,0,0-.584.058.692.692,0,0,0-.35.467.756.756,0,0,0,0,.584.692.692,0,0,0,.467.351.17.17,0,0,1,.117.058,3.636,3.636,0,0,1-.935,1.285,4.2,4.2,0,0,1-3.155,1.344,4.619,4.619,0,0,1-2.278-.584,5.45,5.45,0,0,1-.058-.759,2.645,2.645,0,0,1,.175-.935,3.065,3.065,0,0,0,2.161.876,3.135,3.135,0,0,0,2.22-.876,3.065,3.065,0,0,0,.876-2.162,2.938,2.938,0,0,0-.876-2.162,3.175,3.175,0,0,0-1.811-.876q.117-.643.292-1.4a4.117,4.117,0,0,1,2.454,1.227,4.193,4.193,0,0,1,1.344,3.155ZM389.172,190.2l.351.351a8.02,8.02,0,0,1,1.168,1.811q.175.526.467,1.344.584,1.109,2.921,1.11a2.628,2.628,0,0,1,2.337.876q.584.818,3.1.818a30.574,30.574,0,0,0,3.33-.351q.64-.1,1.168-.175,1.937-.3,2.4-.351v-.409l-.555-.292a77.791,77.791,0,0,0-7.624-3.68A15.245,15.245,0,0,0,389.172,190.2ZM399.8,202.817a5.206,5.206,0,0,1,.935-1.46,4.514,4.514,0,0,1,6.426,0,4.336,4.336,0,0,1,.964,1.431,4.517,4.517,0,0,1,.321,1.723v.292q-.7-.058-1.4-.175v-.058a3.15,3.15,0,0,0-.263-1.285,2.913,2.913,0,0,0-2.775-1.811,3.134,3.134,0,0,0-2.22.876,6.106,6.106,0,0,0-.584.935Zm0,3.447q.128.133.263.263a30.92,30.92,0,0,0,2.424,2.249,5.335,5.335,0,0,1-1.753-1.11,5.161,5.161,0,0,1-.759-1.081A2.9,2.9,0,0,1,399.8,206.264Zm26.639-29.56a.722.722,0,0,0,.234.526,27.055,27.055,0,0,1,2.1,2.1.727.727,0,0,0,.526.234.948.948,0,0,0,.584-.175,1.275,1.275,0,0,0,.234-.526.793.793,0,0,0-.234-.584q-1.051-1.169-2.161-2.22a.855.855,0,0,0-.526-.175.573.573,0,0,0-.526.292A.472.472,0,0,0,426.443,176.7Zm4.615,4.907a.529.529,0,0,0,.117.584,26.89,26.89,0,0,1,1.636,2.454.719.719,0,0,0,.526.351.809.809,0,0,0,.876-.584.8.8,0,0,0-.117-.584,22.483,22.483,0,0,0-1.694-2.57,1.02,1.02,0,0,0-.526-.292,1.124,1.124,0,0,0-.584.175A.556.556,0,0,0,431.058,181.611Z" transform="translate(1.6 0.547)" fill="#07acd0" fill-rule="evenodd"/>
    <path id="Path_703" data-name="Path 703" d="M400.022,161.4a2.745,2.745,0,0,1,.526.409,2.487,2.487,0,0,1,.643,1.052,3.317,3.317,0,0,1,.058.643,2.2,2.2,0,0,1-.175.876,2.267,2.267,0,0,1-.526.818,2.378,2.378,0,0,1-1.753.7,2.566,2.566,0,0,1-1.4-.409,1.051,1.051,0,0,1-.292-.292,2.322,2.322,0,0,1-.7-1.694,2.195,2.195,0,0,1,.409-1.285,1.147,1.147,0,0,1,.292-.409,1.85,1.85,0,0,1,.467-.351l1.227,2.512Z" transform="translate(3.368 3.174)" fill="#4cb85c" fill-rule="evenodd"/>
    <path id="Path_704" data-name="Path 704" d="M388.7,185.742a15.244,15.244,0,0,1,9.055,1.052,77.786,77.786,0,0,1,7.624,3.68l.555.292v.409q-.459.046-2.4.351-.529.075-1.168.175a30.569,30.569,0,0,1-3.33.351q-2.511,0-3.1-.818a2.628,2.628,0,0,0-2.337-.876q-2.336,0-2.921-1.11-.293-.818-.467-1.344a8.021,8.021,0,0,0-1.168-1.811Zm21.557-10.107a6.6,6.6,0,0,1-.7-.409q-1.051-.818-1.168-.876a4.091,4.091,0,0,1,2.454-1.928,5.211,5.211,0,0,1,1.928-.117q.818.117,2.57.351a6.459,6.459,0,0,0,2.8-.351l.526.409q-3.68,2.1-3.739,2.162a8.536,8.536,0,0,1-3.271,1.11A3.371,3.371,0,0,1,410.257,175.636Z" transform="translate(2.071 5.004)" fill="#e8e8e8" fill-rule="evenodd"/>
    <path id="Path_705" data-name="Path 705" d="M403.16,208.575h-.876a6,6,0,0,1-4.323-1.753,6.537,6.537,0,0,1-1.022-1.314,5.842,5.842,0,0,1-.789-3.009,1.081,1.081,0,0,1,.058-.351,4.651,4.651,0,0,1,.409-1.986,6.4,6.4,0,0,1,1.344-1.928,5.9,5.9,0,0,1,4.323-1.811,6.136,6.136,0,0,1,5.608,3.856,5.9,5.9,0,0,1,.409,2.22S404.446,208.38,403.16,208.575Zm-5.082-7.77a4,4,0,0,0-.351,1.694,4.4,4.4,0,0,0,.351,1.753,2.89,2.89,0,0,0,.175.321,5.16,5.16,0,0,0,.759,1.081,5.335,5.335,0,0,0,1.753,1.11,4.6,4.6,0,0,0,1.461.234,4.385,4.385,0,0,0,3.213-1.344,4.338,4.338,0,0,0,1.285-2.863V202.5a4.516,4.516,0,0,0-.321-1.723,4.336,4.336,0,0,0-.964-1.431,4.514,4.514,0,0,0-6.426,0A5.206,5.206,0,0,0,398.078,200.805Zm1.4.467a6.108,6.108,0,0,1,.584-.935,3.134,3.134,0,0,1,2.22-.876,2.914,2.914,0,0,1,2.775,1.811,3.151,3.151,0,0,1,.263,1.285v.058a3.206,3.206,0,0,1-.876,2.1,3.065,3.065,0,0,1-2.162.876,2.918,2.918,0,0,1-2.833-1.811,2.869,2.869,0,0,1-.263-1.227A2.826,2.826,0,0,1,399.48,201.273Zm26.172-31.43a6.284,6.284,0,0,1-3.155-1.694,5.9,5.9,0,0,1-1.811-4.323v-.234a2.689,2.689,0,0,0,.292-.175,1.016,1.016,0,0,0,.292-.526,1.127,1.127,0,0,0-.175-.584.375.375,0,0,1-.175-.175,5.571,5.571,0,0,1,1.577-2.57,5.835,5.835,0,0,1,4.265-1.811,4.064,4.064,0,0,1,.993.117,5.406,5.406,0,0,1,3.33,1.694,5.805,5.805,0,0,1,1.753,4.265v.876q-.818-.293-1.577-.526v-.351a4.193,4.193,0,0,0-1.344-3.155,4.117,4.117,0,0,0-2.454-1.227,2.195,2.195,0,0,0-.7-.117,4.383,4.383,0,0,0-3.213,1.344,4.514,4.514,0,0,0,0,6.309,5.336,5.336,0,0,0,.935.759,4.619,4.619,0,0,0,2.278.584,4.2,4.2,0,0,0,3.155-1.344,3.636,3.636,0,0,0,.935-1.285q.818.233,1.577.467a7.161,7.161,0,0,1-1.344,1.986,5.779,5.779,0,0,1-4.323,1.811A5.084,5.084,0,0,1,425.652,169.843Zm-1.928-5.959a.865.865,0,0,0,.409.234q1.519.233,2.979.584a.633.633,0,0,0,.526-.117.692.692,0,0,0,.35-.409.738.738,0,0,0-.058-.643,1.067,1.067,0,0,0-.467-.351l-3.038-.584a1.53,1.53,0,0,0-.467.058,3.03,3.03,0,0,1,2.8-1.811h.409a3.175,3.175,0,0,1,1.811.876,2.938,2.938,0,0,1,.876,2.162,3.065,3.065,0,0,1-.876,2.161,3.136,3.136,0,0,1-2.22.876,2.993,2.993,0,0,1-3.038-3.038Zm14.955,25.7a5.51,5.51,0,0,1,2.57,1.519,6.358,6.358,0,0,1,.818.993,5.7,5.7,0,0,1,.993,3.271,5.916,5.916,0,0,1-.526,2.454,5.034,5.034,0,0,1-1.285,1.869,6.048,6.048,0,0,1-1.49,1.139,5.755,5.755,0,0,1-2.775.672,5.9,5.9,0,0,1-4.323-1.811,7.219,7.219,0,0,1-.789-.964,6.034,6.034,0,0,1-.964-3.359v-.117a5.669,5.669,0,0,1,1.753-4.148,5.808,5.808,0,0,1,3.739-1.753,3,3,0,0,1,.584-.058h.234a3.6,3.6,0,0,1,.5.058A4.642,4.642,0,0,1,438.679,189.589Zm-4.206,2.045a4.618,4.618,0,0,0-.7.584,4.27,4.27,0,0,0-1.285,3.155,4.488,4.488,0,0,0,1.285,3.213,4.643,4.643,0,0,0,.935.7q1.13.268,2.22.584a4.289,4.289,0,0,0,3.155-1.285,4.383,4.383,0,0,0,1.344-3.213v-.117a3.886,3.886,0,0,0-.993-2.687l-.351-.351a4.193,4.193,0,0,0-3.155-1.344A4.252,4.252,0,0,0,434.473,191.633Zm2.629.7a3.025,3.025,0,0,1,2.045.935,2.868,2.868,0,0,1,.876,2.1,3.038,3.038,0,1,1-6.076,0,2.868,2.868,0,0,1,.876-2.1,2.6,2.6,0,0,1,.818-.643q.35,1.109.643,2.22a.692.692,0,0,0,.351.467.943.943,0,0,0,.584.058,1.171,1.171,0,0,0,.409-.351.8.8,0,0,0,.117-.584Q437.394,193.328,437.1,192.334Z" transform="translate(3.326 2.56)" fill="#5cf9de" fill-rule="evenodd"/>
    <path id="Path_706" data-name="Path 706" d="M397,200.937a4.651,4.651,0,0,0-.409,1.986,34.52,34.52,0,0,1-2.454-3.242c-.083-.105-.161-.213-.234-.321.13.075.257.153.38.234Q395.622,200.326,397,200.937Zm6.543,8.412a5.968,5.968,0,0,0,3.388-1.753,5.786,5.786,0,0,0,1.753-3.914,39.288,39.288,0,0,0,5.608-.292q1.52-.175,2.921-.467.526,1.635,1.227,3.856a11.39,11.39,0,0,0,3.8,6.426,10.366,10.366,0,0,0,1.694,1.168.458.458,0,0,1,.175.058Q412.3,215.308,403.539,209.35Zm2.162-5.959q.7.117,1.4.175a4.338,4.338,0,0,1-1.285,2.863,4.385,4.385,0,0,1-3.213,1.344,4.6,4.6,0,0,1-1.46-.234,30.928,30.928,0,0,1-2.424-2.249q-.135-.13-.263-.263a4.405,4.405,0,0,1-.351-1.753,4,4,0,0,1,.351-1.694l1.4.467a2.826,2.826,0,0,0-.292,1.285,2.869,2.869,0,0,0,.263,1.227,2.918,2.918,0,0,0,2.833,1.811,3.065,3.065,0,0,0,2.162-.876A3.206,3.206,0,0,0,405.7,203.391Zm38.206-33.124a37.438,37.438,0,0,0-4.674-17.117,28.346,28.346,0,0,1,11.859,12.969,41.073,41.073,0,0,1,3.505,12.034c-.078,0-.155.058-.234.175a.62.62,0,0,0-.175.526,1.045,1.045,0,0,0,.292.584l.292.292q.025.329.029.672a30.667,30.667,0,0,1-4.206,17.175,41.331,41.331,0,0,1-4.586,6.4q-.149.172-.292.351a35.287,35.287,0,0,1-2.8,2.8v-.058a12.769,12.769,0,0,0,.409-3.213q-.035-.463-.058-.876-.184-2.384-.234-3.622a2.8,2.8,0,0,0-.117-.759,5.916,5.916,0,0,0,.526-2.454,5.7,5.7,0,0,0-.993-3.271,6.354,6.354,0,0,0-.818-.993,5.51,5.51,0,0,0-2.57-1.519,2.344,2.344,0,0,0-.35-.292c-.081-.055-.158-.115-.234-.175l-1.051-.7a31.983,31.983,0,0,0,6.485-17.292q1.052.584,2.161,1.285a.8.8,0,0,0,.584.117.692.692,0,0,0,.467-.351.8.8,0,0,0,.117-.584,1.067,1.067,0,0,0-.35-.467q-1.285-.818-2.57-1.519A.939.939,0,0,0,443.907,170.267Zm8.646,5.608q-1.227-.934-2.512-1.811a.855.855,0,0,0-.526-.175.955.955,0,0,0-.643.876.786.786,0,0,0,.292.526q1.227.818,2.454,1.753a.853.853,0,0,0,.526.175,1.02,1.02,0,0,0,.526-.292.946.946,0,0,0,.175-.584A1.374,1.374,0,0,0,452.553,175.875Zm-11.742,17.467a3.886,3.886,0,0,1,.993,2.687,12.284,12.284,0,0,1-.643-1.344Q440.986,193.927,440.811,193.343Z" transform="translate(2.947 1.785)" fill="#0c6fa4" fill-rule="evenodd"/>
    <path id="Path_707" data-name="Path 707" d="M420.568,207.823a10.364,10.364,0,0,1-1.694-1.168,11.39,11.39,0,0,1-3.8-6.426q-.7-2.221-1.227-3.856v-.058a31.087,31.087,0,0,0,10.136-3.914q.279-.174.555-.351h.058a1.936,1.936,0,0,0,.292.234c.1.07.2.138.292.2a8.847,8.847,0,0,1,2.863,2.95,7.627,7.627,0,0,1,.467,2.921,4.658,4.658,0,0,1-.234,1.577,3.259,3.259,0,0,0-.292,1.227,3.221,3.221,0,0,0,1.052,2.162,4.085,4.085,0,0,1,1.11,2.629,32.885,32.885,0,0,1-5.2,1.344Q422.671,207.648,420.568,207.823Z" transform="translate(6.306 8.335)" fill="#64c418" fill-rule="evenodd"/>
    <path id="Path_708" data-name="Path 708" d="M423,193.406a35.266,35.266,0,0,0,3.388-2.57v.117a6.034,6.034,0,0,0,.964,3.359,7.218,7.218,0,0,0,.789.964,5.9,5.9,0,0,0,4.323,1.811,5.755,5.755,0,0,0,2.775-.672,6.049,6.049,0,0,0,1.49-1.139,5.034,5.034,0,0,0,1.285-1.869,2.8,2.8,0,0,1,.117.759q.049,1.239.234,3.622.023.414.058.876a12.771,12.771,0,0,1-.409,3.213q-.489.435-.993.847a26.883,26.883,0,0,1-5.784,3.564q-1.281.573-2.629,1.022a4.085,4.085,0,0,0-1.11-2.629,3.221,3.221,0,0,1-1.052-2.161,3.259,3.259,0,0,1,.292-1.227,4.658,4.658,0,0,0,.234-1.577,7.628,7.628,0,0,0-.467-2.921,8.846,8.846,0,0,0-2.863-2.95c-.091-.067-.189-.134-.292-.2a1.935,1.935,0,0,1-.292-.234Zm8.88-8.471a2.9,2.9,0,0,0,.175-.292l.058-.088c.138-.2.275-.387.409-.555l1.052.7c.076.061.153.12.234.175a2.343,2.343,0,0,1,.35.292,4.639,4.639,0,0,0-.964-.234,3.6,3.6,0,0,0-.5-.058h-.234A3,3,0,0,0,431.88,184.935Zm5.024,5.9v.117a4.383,4.383,0,0,1-1.344,3.213,4.289,4.289,0,0,1-3.155,1.285q-1.09-.315-2.22-.584a4.644,4.644,0,0,1-.935-.7,4.488,4.488,0,0,1-1.285-3.213,4.277,4.277,0,0,1,.467-2.045l.818-.935.584-.584.117-.175a4.252,4.252,0,0,1,2.454-.759,4.193,4.193,0,0,1,3.155,1.344l.351.351q.175.584.351,1.344A12.279,12.279,0,0,0,436.9,190.835Zm-5.784-2.629a2.6,2.6,0,0,0-.818.643,2.868,2.868,0,0,0-.876,2.1,3.038,3.038,0,1,0,6.076,0,2.868,2.868,0,0,0-.876-2.1,3.026,3.026,0,0,0-2.045-.935c-.078-.272-.155-.526-.234-.759a.757.757,0,0,0-.351-.467,1.247,1.247,0,0,0-.643-.058.706.706,0,0,0-.409.409.628.628,0,0,0-.058.584Z" transform="translate(7.847 6.98)" fill="#1fc12e" fill-rule="evenodd"/>
  </g>
</svg>
